<?xml version="1.0" encoding="UTF-8" standalone="no"?>
<!-- Created with Inkscape (http://www.inkscape.org/) -->

<svg
   width="512"
   height="512"
   viewBox="0 0 512 512"
   version="1.1"
   id="svg1"
   xml:space="preserve"
   inkscape:version="1.4.3 (0d15f75, 2025-12-25)"
   sodipodi:docname="arsenal-i18n.svg"
   inkscape:export-filename="arsenal-i18n.png"
   inkscape:export-xdpi="96"
   inkscape:export-ydpi="96"
   xmlns:inkscape="http://www.inkscape.org/namespaces/inkscape"
   xmlns:sodipodi="http://sodipodi.sourceforge.net/DTD/sodipodi-0.dtd"
   xmlns="http://www.w3.org/2000/svg"
   xmlns:svg="http://www.w3.org/2000/svg"><sodipodi:namedview
     id="namedview1"
     pagecolor="#505050"
     bordercolor="#eeeeee"
     borderopacity="1"
     inkscape:showpageshadow="0"
     inkscape:pageopacity="0"
     inkscape:pagecheckerboard="0"
     inkscape:deskcolor="#505050"
     inkscape:document-units="px"
     inkscape:zoom="1.4672419"
     inkscape:cx="216.73318"
     inkscape:cy="240.92824"
     inkscape:window-width="2560"
     inkscape:window-height="1377"
     inkscape:window-x="-8"
     inkscape:window-y="32"
     inkscape:window-maximized="1"
     inkscape:current-layer="layer1" /><defs
     id="defs1"><rect
       x="59.774896"
       y="51.763827"
       width="603.29508"
       height="509.6272"
       id="rect1" /></defs><g
     inkscape:label="Layer 1"
     inkscape:groupmode="layer"
     id="layer1"><g
       id="g3"
       style="display:inline"
       transform="matrix(0.98021825,0,0,0.97362962,1.2284759,0.42310364)"><g
         id="g2"
         transform="matrix(0.2929043,0,0,0.2929043,110.8261,89.146241)"><path
           fill="#dbdbdb"
           d="m 931.7,998.3 c 36.5,0 66.4,-29.4 66.4,-65.4 V 265.8 c 0,-36 -29.9,-65.4 -66.4,-65.4 H 283.6 l 260.1,797.9 z"
           id="path1-8" /><path
           fill="#dcdcdc"
           d="m 931.7,230.4 c 9.7,0 18.9,3.8 25.8,10.6 6.8,6.7 10.6,15.5 10.6,24.8 v 667.1 c 0,9.3 -3.7,18.1 -10.6,24.8 -6.9,6.8 -16.1,10.6 -25.8,10.6 H 565.5 L 324.9,230.4 h 606.8 m 0,-30 H 283.6 l 260.1,797.9 h 388 c 36.5,0 66.4,-29.4 66.4,-65.4 V 265.8 c 0,-36 -29.9,-65.4 -66.4,-65.4 z"
           id="path2" /><polygon
           fill="#4352b8"
           points="543.7,998.3 714.4,809.8 482.3,809.8 "
           id="polygon2"
           style="fill:#272727;fill-opacity:1" /><path
           fill="#607988"
           d="M 936.1,476.1 V 437 H 747.6 V 373.8 H 686.4 V 437 H 566.1 v 39.1 h 239.4 c -12.8,45.1 -41.1,87.7 -68.7,120.8 -48.9,-57.9 -49.1,-76.7 -49.1,-76.7 h -50.8 c 0,0 2.1,28.2 70.7,108.6 -22.3,22.8 -39.2,36.3 -39.2,36.3 l 15.6,48.8 c 0,0 23.6,-20.3 53.1,-51.6 29.6,32.1 67.8,70.7 117.2,116.7 l 32.1,-32.1 C 833.5,698.9 794.7,660.8 766.2,630.2 804.4,585 843.2,528.1 851.4,476 H 936 v 0.1 z"
           id="path3" /><path
           fill="#4285f4"
           d="M 66.4,0 C 29.9,0 0,29.9 0,66.5 v 677 c 0,36.5 29.9,66.4 66.4,66.4 H 714.5 L 454.4,0 Z"
           id="path4"
           style="display:inline;fill:#404040;fill-opacity:1" /><path
           fill="url(#a)"
           d="m 534.3,200.4 h 397.4 c 36.5,0 66.4,29.4 66.4,65.4 V 666 Z"
           id="path5" /><path
           fill="url(#b)"
           d="M 931.7,200.4 H 518.8 L 454.4,0 H 66.4 C 29.9,0 0,29.9 0,66.5 v 677 c 0,36.5 29.9,66.4 66.4,66.4 h 415.9 l 61.4,188.4 h 388 c 36.5,0 66.4,-29.4 66.4,-65.4 V 265.8 c 0,-36 -29.9,-65.4 -66.4,-65.4 z"
           id="path7" /></g><path
         d="m 190.97625,130.12164 -61.12494,49.31027 6.16392,11.04341 c 0.51365,12.84137 2.8251,49.31117 0,63.43668 l -5.64973,12.84097 c 10.78674,13.35502 43.66052,27.22446 43.66052,27.22446 l 33.13024,-24.91275 25.42693,24.14148 30.81852,-32.10293 c 0,0 -9.75959,-8.73178 -16.4371,-19.00488 0.25683,-11.55723 1.02731,-61.12495 1.02731,-61.12495 -0.77047,-4.36606 12.84201,-18.74882 12.84201,-18.74882 z m -5.90681,37.75371 22.8581,13.09805 0.77023,72.16837 -13.09806,8.73169 c -4.6229,-0.51366 -20.03246,-13.35474 -19.77563,-23.11417 l -1.28388,-48.02688 c 0.25683,-11.30041 10.52924,-22.85706 10.52924,-22.85706 z"
         style="opacity:1;fill:#ffe50d;fill-opacity:1;stroke:none;stroke-width:1.06583;stroke-linejoin:round"
         id="path10"
         sodipodi:nodetypes="cccccccccccccccccccc" /></g><path
       style="opacity:1;fill:none;fill-opacity:1;stroke:#fee800;stroke-width:26;stroke-linejoin:round;stroke-dasharray:none;stroke-opacity:1"
       d="M 61.205015,77.59061 256.38636,18.795241 453.0135,78.07254 l 0,231.80797 c -19.75909,95.90392 -195.66328,181.2054 -195.66328,181.2054 0,0 -185.060832,-90.12076 -195.181346,-181.20539 z"
       id="path6"
       sodipodi:nodetypes="ccccccc" /></g></svg>
